<svg id="Layer_1" data-name="Layer 1" xmlns="http://www.w3.org/2000/svg" viewBox="0 0 448 512"><defs><style>.cls-1{fill:#dedede;}</style></defs><path class="cls-1" d="M0,464a48.012,48.012,0,0,0,48,48H400a48.012,48.012,0,0,0,48-48V192H0ZM320,268a12.035,12.035,0,0,1,12-12h40a12.035,12.035,0,0,1,12,12v40a12.035,12.035,0,0,1-12,12H332a12.035,12.035,0,0,1-12-12Zm0,128a12.035,12.035,0,0,1,12-12h40a12.035,12.035,0,0,1,12,12v40a12.035,12.035,0,0,1-12,12H332a12.035,12.035,0,0,1-12-12ZM192,268a12.035,12.035,0,0,1,12-12h40a12.035,12.035,0,0,1,12,12v40a12.035,12.035,0,0,1-12,12H204a12.035,12.035,0,0,1-12-12Zm0,128a12.035,12.035,0,0,1,12-12h40a12.035,12.035,0,0,1,12,12v40a12.035,12.035,0,0,1-12,12H204a12.035,12.035,0,0,1-12-12ZM64,268a12.035,12.035,0,0,1,12-12h40a12.035,12.035,0,0,1,12,12v40a12.035,12.035,0,0,1-12,12H76a12.035,12.035,0,0,1-12-12Zm0,128a12.035,12.035,0,0,1,12-12h40a12.035,12.035,0,0,1,12,12v40a12.035,12.035,0,0,1-12,12H76a12.035,12.035,0,0,1-12-12ZM400,64H352V16A16.047,16.047,0,0,0,336,0H304a16.047,16.047,0,0,0-16,16V64H160V16A16.047,16.047,0,0,0,144,0H112A16.047,16.047,0,0,0,96,16V64H48A48.012,48.012,0,0,0,0,112v48H448V112A48.012,48.012,0,0,0,400,64Z"/></svg>