<svg id="Layer_1" data-name="Layer 1" xmlns="http://www.w3.org/2000/svg" viewBox="0 0 2809.936 1149.743"><defs><style>.cls-1,.cls-2,.cls-3{fill:#f38c00;}.cls-1{opacity:0.22;}.cls-1,.cls-2{isolation:isolate;}.cls-2{opacity:0.47;}</style></defs><path id="Path_3-2" data-name="Path 3-2" class="cls-1" d="M-757.612,739.172S-134.434,246.543,801.119,348.125s1085.222-758.7,1085.222-758.7l-2003.014,146.1S-809.027,489.038-808.08,516.656-757.612,739.172-757.612,739.172Z" transform="translate(850.936 410.571)"/><path id="Path_2-2" data-name="Path 2-2" class="cls-2" d="M-800.68,626.476S-135.058,185.107,793.763,365.241,1944.592-304,1944.592-304L-74.462-325.388s-756.78,696.948-758.144,724.7S-800.68,626.476-800.68,626.476Z" transform="translate(850.936 410.571)"/><path id="Path_1" data-name="Path 1" class="cls-3" d="M-830.737,548.188S-143.014,142.439,774.884,371.017,1959-236.787,1959-236.787L-55.732-364.067S-847.877,292.074-850.695,319.708-830.737,548.188-830.737,548.188Z" transform="translate(850.936 410.571)"/></svg>