<svg id="Layer_1" data-name="Layer 1" xmlns="http://www.w3.org/2000/svg" viewBox="0 0 1000 700"><defs><style>.cls-1{fill:#fff;}</style></defs><path class="cls-1" d="M300,478A175,175,0,1,0,125,303,174.912,174.912,0,0,0,300,478Zm120,50H407.031c-32.5,15.625-68.593,25-107.031,25s-74.375-9.375-107.031-25H180C80.625,528,0,608.625,0,708v45a75.02,75.02,0,0,0,75,75H525a75.02,75.02,0,0,0,75-75V708C600,608.625,519.375,528,420,528Zm330-50A150,150,0,1,0,600,328,150.039,150.039,0,0,0,750,478Zm75,50h-5.937c-21.719,7.5-44.688,12.5-69.063,12.5s-47.344-5-69.063-12.5H675c-31.875,0-61.25,9.219-87.031,24.062C626.094,593.156,650,647.688,650,708v60c0,3.438-.781,6.719-.938,10H925a75.02,75.02,0,0,0,75-75A174.912,174.912,0,0,0,825,528Z" transform="translate(0 -128)"/></svg>