<svg id="Layer_1" data-name="Layer 1" xmlns="http://www.w3.org/2000/svg" viewBox="0 0 512 512"><defs><style>.cls-1{fill:#fff;}</style></defs><path class="cls-1" d="M256,0C114.581,0,0,114.581,0,256S114.581,512,256,512,512,397.419,512,256,397.419,0,256,0Zm95.474,323.1h0L330.828,348.9a16.516,16.516,0,0,1-23.214,2.582h0L238.452,300.16a41.288,41.288,0,0,1-15.484-32.237V107.355a16.515,16.515,0,0,1,16.516-16.516h33.032a16.515,16.515,0,0,1,16.516,16.516V256L348.9,299.871a16.516,16.516,0,0,1,2.58,23.214Z"/></svg>