<svg id="Layer_1" data-name="Layer 1" xmlns="http://www.w3.org/2000/svg" viewBox="0 0 1000 554.387"><defs><style>.cls-1{fill:#fff;}</style></defs><path class="cls-1" d="M423.484,350.727c-117.523,0-213.136,95.613-213.136,213.137S305.961,777,423.484,777,636.62,681.387,636.62,563.864,541.007,350.727,423.484,350.727ZM577.126,544.064h-88.26a67.242,67.242,0,0,0-4.778-11.155l62.695-62.695A154.12,154.12,0,0,1,577.126,544.064ZM519,441.994l-63.133,63.133a67.128,67.128,0,0,0-11.417-4.695V410.385A154.209,154.209,0,0,1,519,441.994ZM404.849,410.086v90.346a67.138,67.138,0,0,0-11.418,4.695l-64.144-64.143A154.121,154.121,0,0,1,404.849,410.086ZM301.2,468.9l64.014,64.014a67.162,67.162,0,0,0-4.779,11.155H269.842A154.171,154.171,0,0,1,301.2,468.9ZM269.842,583.663h89.88a67.126,67.126,0,0,0,5.025,12.583l-63.132,63.132A154.181,154.181,0,0,1,269.842,583.663Zm59.991,103.5,62.7-62.7a67.112,67.112,0,0,0,12.32,5.158v88.017A154.122,154.122,0,0,1,329.833,687.163Zm114.615,30.179V629.625a67.112,67.112,0,0,0,12.32-5.158l61.684,61.685A154.175,154.175,0,0,1,444.448,717.342ZM546.364,658.06,484.55,596.245a67.188,67.188,0,0,0,5.026-12.582h87.55A154.143,154.143,0,0,1,546.364,658.06Z" transform="translate(0 -222.613)"/><path class="cls-1" d="M981.14,285.505H796.181V259.621c0-20.406-16.808-37.008-37.47-37.008H37.478A37.461,37.461,0,0,0,8.2,236.53,36.541,36.541,0,0,0,.819,267.283L62.8,556.6a37.521,37.521,0,0,0,36.665,29.345h.122l83.556-.282-1.369-21.017c-.337-5.17-.5-10-.5-14.758,0-128.443,108.9-232.936,242.765-232.936S666.8,421.445,666.8,549.888c0,4.208-.132,8.628-.394,13.139L665.2,584.039l93.638-.317c20.594-.068,37.345-16.669,37.345-37.008V355.386H981.14a18.881,18.881,0,0,0,18.86-18.86v-32.16A18.881,18.881,0,0,0,981.14,285.505Z" transform="translate(0 -222.613)"/></svg>