<svg xmlns="http://www.w3.org/2000/svg" viewBox="0 0 1000 1000"><defs><style>.cls-1{fill:#ecc94b;}.cls-2{fill:#fff;}</style></defs><g id="Layer_1" data-name="Layer 1"><circle class="cls-1" cx="500" cy="500" r="500"/></g><g id="Layer_3" data-name="Layer 3"><g id="surface1"><path class="cls-2" d="M423.376,763.821C449.05,812.5,484.52,844.665,486.568,846.5a20.592,20.592,0,0,0,27.47,0c2.048-1.834,37.508-34,63.181-82.678C547,751.8,520.885,735.306,500.3,719.686,479.71,735.306,453.6,751.8,423.376,763.821Z" transform="translate(-0.5 -0.5)"/><path class="cls-2" d="M803.719,585.505c-3.828,4.338-7.764,8.558-11.818,12.612-40.457,40.452-94.147,69.38-159.592,85.981a501.729,501.729,0,0,1-91.225,14.07c32.178,21.5,75.82,42.2,124.61,42.2,99.4,0,177.458-85.9,180.734-89.558a20.588,20.588,0,0,0,0-27.464C845.356,622.15,829.548,604.691,803.719,585.505Z" transform="translate(-0.5 -0.5)"/><path class="cls-2" d="M368.3,684.1c-65.444-16.6-119.14-45.529-159.6-85.986q-6.089-6.081-11.824-12.612c-25.823,19.186-41.631,36.65-42.7,37.841a20.6,20.6,0,0,0,0,27.47c3.276,3.657,81.332,89.552,180.729,89.552,48.8,0,92.431-20.7,124.614-42.2A501.988,501.988,0,0,1,368.3,684.1Z" transform="translate(-0.5 -0.5)"/><path class="cls-2" d="M486.568,652.419a20.577,20.577,0,0,0,27.47,0c5.051-4.52,123.725-112.357,123.725-249.085S519.089,158.775,514.038,154.249a20.595,20.595,0,0,0-27.47,0c-5.056,4.526-123.73,112.363-123.73,249.085S481.517,647.9,486.568,652.419Z" transform="translate(-0.5 -0.5)"/><path class="cls-2" d="M719.17,254.858c-9.984-34.569-20.73-57.192-21.411-58.6a20.587,20.587,0,0,0-25.379-10.515c-1.469.52-25.057,8.907-56.554,26.291a431.115,431.115,0,0,1,34.5,62.956A433.229,433.229,0,0,1,719.17,254.858Z" transform="translate(-0.5 -0.5)"/><path class="cls-2" d="M384.774,212.037c-31.491-17.384-55.079-25.771-56.553-26.291a20.584,20.584,0,0,0-25.379,10.51c-.676,1.41-11.427,24.033-21.411,58.6a432.843,432.843,0,0,1,68.844,20.129A431.766,431.766,0,0,1,384.774,212.037Z" transform="translate(-0.5 -0.5)"/><path class="cls-2" d="M678.938,403.334c0,36.275-7.169,73.5-21.32,110.625-11.083,29.1-26.477,58.238-45.76,86.63a510.52,510.52,0,0,1-41.867,53.476c56.694-7.33,135.779-28.054,192.794-85.064,96.678-96.678,89.016-256.849,88.64-263.621A20.587,20.587,0,0,0,832,285.958c-.928-.048-5.464-.279-12.831-.279-26.671,0-90.432,2.96-154.353,27.851A302.462,302.462,0,0,1,678.938,403.334Z" transform="translate(-0.5 -0.5)"/><path class="cls-2" d="M430.615,654.07a511.3,511.3,0,0,1-41.867-53.481c-19.282-28.392-34.682-57.535-45.766-86.63-14.145-37.127-21.319-74.35-21.319-110.625a302.309,302.309,0,0,1,14.123-89.8c-63.921-24.891-127.676-27.851-154.347-27.851-7.378,0-11.915.226-12.842.279a20.588,20.588,0,0,0-19.422,19.422c-.375,6.772-8.037,166.943,88.641,263.621C294.836,626.016,373.922,646.735,430.615,654.07Z" transform="translate(-0.5 -0.5)"/></g></g></svg>