<svg xmlns="http://www.w3.org/2000/svg" viewBox="0 0 1000 1000"><defs><style>.cls-1{fill:#fff;}.cls-2{fill:#f56565;}</style></defs><g id="Layer_1" data-name="Layer 1"><circle class="cls-1" cx="500" cy="500" r="500"/></g><g id="Layer_5" data-name="Layer 5"><path class="cls-2" d="M791.97,715.665,566.349,455.339,455.256,566.433l259.382,224.75a54.123,54.123,0,0,0,76.469,0C812.152,770.1,812.152,735.811,791.97,715.665Z" transform="translate(-0.5 -0.5)"/><path class="cls-2" d="M375.117,544.659l-45.848,48.628-111.04,76.659a54.06,54.06,0,0,0-10.4,84.562l36.651,36.651c25.19,25.232,66.941,19.029,83.947-9.448L405.7,669.721l51.332-54.111ZM348.032,689.872c-13.529-9.734-30.365-14.355-47.421-10.865-9.22,1.89-16.827-1.553-22.229-6.831l60.306-41.608L368.424,660.3Z" transform="translate(-0.5 -0.5)"/><path class="cls-2" d="M791.088,208.023a54.181,54.181,0,0,0-76.451.018L544.524,375.25l70.993,81.884L791.106,284.492A54.187,54.187,0,0,0,791.088,208.023Z" transform="translate(-0.5 -0.5)"/><path class="cls-2" d="M383.39,256.1C354.872,227.563,248.114,197.853,217.478,192l80.386,80.386a18.016,18.016,0,0,1-25.478,25.478L192,217.48c5.851,30.636,35.467,137.488,64,166.005A90.078,90.078,0,0,0,383.39,256.1Z" transform="translate(-0.5 -0.5)"/><path class="cls-2" d="M454.4,328.922a51.356,51.356,0,0,0-8.949-5.426A125.034,125.034,0,0,1,323.4,445.551a51.067,51.067,0,0,0,5.418,8.94c2.749,6.2,93.789,83.652,99.136,88.286L542.691,428.042C538.142,422.792,460.747,331.744,454.4,328.922Z" transform="translate(-0.5 -0.5)"/></g></svg>