<svg xmlns="http://www.w3.org/2000/svg" viewBox="0 0 1000 1000"><defs><style>.cls-1{fill:#fff;}.cls-2{fill:#4299e1;}</style></defs><g id="Layer_1" data-name="Layer 1"><circle class="cls-1" cx="500" cy="500" r="500"/></g><g id="Layer_8" data-name="Layer 8"><path class="cls-2" d="M596.833,258.756a72.378,72.378,0,1,0-72.377-72.378A72.378,72.378,0,0,0,596.833,258.756ZM358.122,592.7l-22.316,52.052H234.944a48.252,48.252,0,1,0,0,96.5H351.729A72.224,72.224,0,0,0,418.241,697.4L431.5,666.454l-16.089-9.5C389.29,641.529,370.08,618.7,358.122,592.7ZM765.715,451.748H699.323l-39.295-80.294c-18.848-38.526-53.454-66.693-93.156-76.811L459.693,262.767a144.141,144.141,0,0,0-121.9,25.845l-59.817,45.854a48.246,48.246,0,1,0,58.717,76.57l59.847-45.855c11.565-8.881,26.3-12.063,38.1-9.258l22.166,6.589L400.328,494.285a96.756,96.756,0,0,0,39.657,121.1l128.139,75.65L526.7,823.318a48.247,48.247,0,1,0,92.086,28.83L666.5,699.763a72.678,72.678,0,0,0-32.63-82.013l-92.342-54.495,47.211-118.036L619.3,507.69a72.824,72.824,0,0,0,65,40.547h81.41a48.245,48.245,0,1,0,0-96.489Z" transform="translate(-0.5 -0.5)"/></g></svg>