<svg xmlns="http://www.w3.org/2000/svg" viewBox="0 0 1000 1000"><defs><style>.cls-1{fill:#ed64a6;}.cls-2{fill:#fff;}</style></defs><g id="Layer_1" data-name="Layer 1"><circle class="cls-1" cx="500" cy="500" r="500"/></g><g id="Layer_10" data-name="Layer 10"><path class="cls-2" d="M659.115,420.346c0-109.577-115.4-198.33-257.828-198.33s-257.828,88.753-257.828,198.33c0,42.517,17.477,81.687,47.1,114.039-16.61,37.435-44.005,67.184-44.376,67.556a9.855,9.855,0,0,0-1.86,10.784,9.708,9.708,0,0,0,9.049,5.95c45.368,0,82.927-15.246,109.949-30.989,39.914,19.461,87.141,30.989,137.963,30.989C543.712,618.675,659.115,529.923,659.115,420.346Zm151.226,272.7c29.626-32.229,47.1-71.523,47.1-114.04,0-82.926-66.317-153.953-160.275-183.579a184.327,184.327,0,0,1,1.611,24.916c0,131.269-133.5,238-297.494,238a371.774,371.774,0,0,1-39.294-2.355c39.046,71.275,130.773,121.353,237.623,121.353,50.822,0,98.05-11.4,137.963-30.989,27.023,15.742,64.581,30.989,109.949,30.989a9.772,9.772,0,0,0,9.049-5.95,9.934,9.934,0,0,0-1.859-10.784C854.346,760.233,826.952,730.607,810.341,693.049Z" transform="translate(-0.5 -0.5)"/></g></svg>