<svg xmlns="http://www.w3.org/2000/svg" viewBox="0 0 1000 1000"><defs><style>.cls-1{fill:#fff;}.cls-2{fill:#9f7aea;}</style></defs><g id="Layer_1" data-name="Layer 1"><circle class="cls-1" cx="500" cy="500" r="500"/></g><g id="Layer_6" data-name="Layer 6"><path class="cls-2" d="M354.953,187.3c-14.809-23.327-48.751-29.88-70.768-12.319-72.733,58.056-118.994,144.68-118.994,241.658h335.49ZM815.2,290.828H752.3A83.95,83.95,0,0,0,668.427,374.7v83.872H165.191c0,66.312,30.142,126.333,79.024,171.284-45.344,11.663-79.024,52.42-79.024,101.3a104.841,104.841,0,1,0,209.682,0c0-11.663-2.359-22.541-5.767-33.025a339.244,339.244,0,0,0,179.278,0,102.256,102.256,0,0,0-5.766,33.025,104.841,104.841,0,1,0,209.681,0c0-48.882-33.68-89.639-79.024-101.3C722.157,584.906,752.3,524.885,752.3,458.573V374.7h62.9a21.03,21.03,0,0,0,20.968-20.968V311.8A21.03,21.03,0,0,0,815.2,290.828ZM270.032,773.1a41.937,41.937,0,1,1,41.936-41.937A42.06,42.06,0,0,1,270.032,773.1ZM689.4,731.159a41.937,41.937,0,1,1-41.937-41.936A42.061,42.061,0,0,1,689.4,731.159Z" transform="translate(-0.5 -0.5)"/></g></svg>