<svg xmlns="http://www.w3.org/2000/svg" viewBox="0 0 1000 1000"><defs><style>.cls-1{fill:#fff;}.cls-2{fill:#48bb78;}</style></defs><g id="Layer_1" data-name="Layer 1"><circle class="cls-1" cx="500" cy="500" r="500"/></g><g id="Layer_7" data-name="Layer 7"><path class="cls-2" d="M297.575,476.094c-4.226-14.609-9.418-40.084-9.418-40.084h-.6s-5.192,25.475-9.418,40.084l-13.4,45.276h46ZM857.669,306.823H519.608V693.177H857.669A28.907,28.907,0,0,0,886.645,664.2V335.8A28.907,28.907,0,0,0,857.669,306.823ZM828.692,451.706A14.531,14.531,0,0,1,814.2,466.194H800.44c-8.331,28.494-26.2,57.229-51.555,84.394A374.37,374.37,0,0,0,780.4,572.321a14.527,14.527,0,0,1,4.95,19.559l-9.539,16.782a14.531,14.531,0,0,1-20.162,5.192,420.083,420.083,0,0,1-42.741-30.063,425.742,425.742,0,0,1-42.74,30.063A14.532,14.532,0,0,1,650,608.662l-9.538-16.782a14.48,14.48,0,0,1,5.07-19.559,344.3,344.3,0,0,0,31.513-21.733,280.005,280.005,0,0,1-25.355-31.029,14.444,14.444,0,0,1,4.467-20.646l7.848-4.708,8.814-5.192a14.6,14.6,0,0,1,19.318,4.105,230.059,230.059,0,0,0,21.008,25.234c16.3-17.145,28.735-34.893,36.22-52.158h-138a14.531,14.531,0,0,1-14.488-14.488V432.388A14.53,14.53,0,0,1,611.367,417.9h77.271V398.582a14.531,14.531,0,0,1,14.489-14.488h19.317a14.531,14.531,0,0,1,14.489,14.488V417.9H814.2a14.53,14.53,0,0,1,14.488,14.488ZM113.935,335.8V664.2a28.907,28.907,0,0,0,28.977,28.976H480.973V306.823H142.912A28.907,28.907,0,0,0,113.935,335.8Zm71.114,260.91,69.423-204.164a14.435,14.435,0,0,1,13.764-9.78h39.239a14.713,14.713,0,0,1,13.764,9.78l69.423,204.164a14.527,14.527,0,0,1-13.764,19.2H349.25a14.488,14.488,0,0,1-13.885-10.383l-11.349-38.515H251.333L240.346,605.4a14.6,14.6,0,0,1-13.885,10.5H198.813A14.579,14.579,0,0,1,185.049,596.709Z" transform="translate(-0.5 -0.5)"/></g></svg>