<svg id="Layer_1" data-name="Layer 1" xmlns="http://www.w3.org/2000/svg" viewBox="0 0 999.994 953.804"><defs><style>.cls-1{fill:#fff;}</style></defs><title>icon_close_white</title><path id="Icon_awesome-window-close" data-name="Icon awesome-window-close" class="cls-1" d="M906.2,23.2H93.8A98.243,98.243,0,0,0,.084,125.372V874.824A98.243,98.243,0,0,0,93.8,977H906.2a98.242,98.242,0,0,0,93.711-102.176V125.372A98.242,98.242,0,0,0,906.2,23.2ZM742.859,641.7a27.82,27.82,0,0,1,0,37.04l-79.086,86.239a22.653,22.653,0,0,1-33.979,0L499.957,622.105,370.121,764.938a22.658,22.658,0,0,1-33.98,0L257.055,678.7a27.82,27.82,0,0,1,0-37.04L388.2,500.1,257.055,358.538a27.82,27.82,0,0,1,0-37.04l79.086-86.239a22.653,22.653,0,0,1,33.98,0L499.957,378.13,629.794,235.259a22.647,22.647,0,0,1,33.979,0L742.859,321.5a27.82,27.82,0,0,1,0,37.04l-131.148,141.6Z" transform="translate(0 -23.196)"/></svg>