<svg id="Layer_1" data-name="Layer 1" xmlns="http://www.w3.org/2000/svg" viewBox="0 0 1000 1000"><defs><style>.cls-1{fill:#f38c00;}</style></defs><title>icon_back_orange</title><path id="Icon_awesome-chevron-circle-left" data-name="Icon awesome-chevron-circle-left" class="cls-1" d="M499.886,1000c-276.142,0-500-223.858-500-500S223.744,0,499.886,0s500,223.858,500,500h0c.038,276.105-223.758,499.962-499.863,500ZM270.227,534.254,543.712,807.74a47.86,47.86,0,0,0,67.681.69q.348-.342.691-.69l34.185-34.186a47.86,47.86,0,0,0,.691-67.681c-.228-.232-.458-.463-.691-.69L441.155,500.068,646.269,294.954a47.86,47.86,0,0,0,.691-67.681q-.342-.348-.691-.69L612.084,192.4a47.861,47.861,0,0,0-67.681-.691q-.35.342-.691.691L270.227,465.883A48.406,48.406,0,0,0,270.227,534.254Z" transform="translate(0.114)"/></svg>