<svg id="Layer_1" data-name="Layer 1" xmlns="http://www.w3.org/2000/svg" viewBox="0 0 937.421 999.83"><defs><style>.cls-1{fill:#f38c00;}</style></defs><title>icon_settings_privacy</title><path id="Icon_awesome-shield-alt" data-name="Icon awesome-shield-alt" class="cls-1" d="M910.882,163.586,535.914,7.349a94.048,94.048,0,0,0-72.078,0L88.9,163.586a93.631,93.631,0,0,0-57.8,86.52c0,387.662,223.62,655.5,432.575,742.715a94.046,94.046,0,0,0,72.077,0c167.375-69.716,432.769-310.529,432.769-742.715A93.769,93.769,0,0,0,910.882,163.586ZM500,871.72l-.194-744.076L843.332,270.8C836.888,566.5,683.123,780.617,500,871.72Z" transform="translate(-31.095 -0.17)"/></svg>