<?xml version="1.0" encoding="utf-8"?>
<!-- Generator: Adobe Illustrator 23.1.0, SVG Export Plug-In . SVG Version: 6.00 Build 0)  -->
<svg version="1.1" xmlns="http://www.w3.org/2000/svg" xmlns:xlink="http://www.w3.org/1999/xlink" x="0px" y="0px"
	 viewBox="0 0 1000 1000" style="enable-background:new 0 0 1000 1000;" xml:space="preserve">
<style type="text/css">
	.st0{display:none;}
	.st1{display:inline;fill:#BEC4CB;}
	.st2{fill:#BEC4CB;}
</style>
<g id="Layer_1" class="st0">
	<path id="Icon_material-people" class="st1" d="M500.27,428.93c118.27,0,214.15-95.88,214.15-214.15
		c0-118.27-95.88-214.15-214.15-214.15S286.12,96.5,286.12,214.78c0,0,0,0,0,0c-0.48,117.79,94.62,213.67,212.41,214.15
		C499.11,428.93,499.69,428.93,500.27,428.93z M500.27,571.72c-166.35,0-499.79,83.52-499.79,249.86v178.5H1000V821.64
		c0-166.35-333.38-249.86-499.73-249.86V571.72z"/>
</g>
<g id="Layer_2">
	<path id="Icon_material-email" class="st2" d="M900.04,132.8H100.22c-55.04,0.19-99.54,44.92-99.44,99.96L0.25,832.43
		c0.16,55.14,44.82,99.8,99.96,99.96h799.82c55.14-0.16,99.8-44.82,99.96-99.96V232.76C999.84,177.62,955.18,132.96,900.04,132.8z
		 M900.04,332.67L500.24,582.29L100.45,332.67v-99.91l399.79,249.62l399.79-249.62V332.67z"/>
</g>
</svg>
