<svg id="Layer_1" data-name="Layer 1" xmlns="http://www.w3.org/2000/svg" viewBox="0 0 999.886 999.886"><defs><style>.cls-1{fill:#f38c00;}</style></defs><title>icon_settings_globe</title><path id="Icon_awesome-globe-europe" data-name="Icon awesome-globe-europe" class="cls-1" d="M499.943.114C223.832.114,0,223.946,0,500.057S223.832,1000,499.943,1000,999.886,776.168,999.886,500.057h0C999.949,224.009,776.219.177,500.171.114ZM903.1,500.057a401.461,401.461,0,0,1-21.769,129.814h-40.91a31.884,31.884,0,0,1-22.854-9.656l-64.507-65.707a24.054,24.054,0,0,1,0-33.653l25.2-25.2v-17.6a22.854,22.854,0,0,0-6.628-16.113l-18.969-18.969a22.853,22.853,0,0,0-16.112-6.628H704.263a22.855,22.855,0,0,1-16.113-38.91l18.969-18.969a22.856,22.856,0,0,1,16.113-6.628h64.507a22.854,22.854,0,0,0,22.854-22.854V330.077a22.854,22.854,0,0,0-22.854-22.855H713.8A32.339,32.339,0,0,0,681.522,339.5v9.085a32.339,32.339,0,0,1-22,30.625l-63.707,21.14a16.056,16.056,0,0,0-11.085,15.313v4.456a16.169,16.169,0,0,1-16.112,16.113H536.453a16.169,16.169,0,0,1-16.112-16.113,16.17,16.17,0,0,0-16.113-16.112h-6.285a16.454,16.454,0,0,0-14.512,8.856l-18.97,37.71a32.109,32.109,0,0,1-28.568,17.712H391.327a32.338,32.338,0,0,1-32.282-32.282V385.042a32.4,32.4,0,0,1,9.484-22.855l40.51-40.51a49.877,49.877,0,0,0,14.513-35.253,16.226,16.226,0,0,1,10.684-15.2l80.619-26.8a23.483,23.483,0,0,0,8.857-5.713l54.051-54.051a22.854,22.854,0,0,0-16.113-38.91H519.941l-32.282,32.282v16.112a16.171,16.171,0,0,1-16.113,16.113H439.493a16.171,16.171,0,0,1-16.113-16.113V154.1a16.228,16.228,0,0,1,6.457-12.913l58.279-43.767c3.828,0,7.656-.628,11.427-.628C722.282,96.852,902.876,277.318,903.1,500.057ZM262.256,284.539a22.856,22.856,0,0,1,6.628-16.113L320.306,217a22.855,22.855,0,0,1,38.91,16.112V265.4a22.856,22.856,0,0,1-6.628,16.113L333.619,300.48a22.853,22.853,0,0,1-16.112,6.628H285.053A22.855,22.855,0,0,1,262.256,284.539ZM520.283,902.183V887.841A32.34,32.34,0,0,0,488,855.559H447.32a139.581,139.581,0,0,1-71.363-23.711L331.391,798.2a91.42,91.42,0,0,1-36.682-73.364V676.437a91.42,91.42,0,0,1,44.567-78.62L425.78,546a92.959,92.959,0,0,1,47.2-13.085h62.85a91.936,91.936,0,0,1,59.65,22L682.551,629.7h36.91a64.392,64.392,0,0,1,45.709,18.97l34.853,34.853a36.9,36.9,0,0,0,26,10.684h27.025A402.468,402.468,0,0,1,520.283,902.183Z" transform="translate(0 -0.114)"/></svg>