<svg id="Layer_1" data-name="Layer 1" xmlns="http://www.w3.org/2000/svg" viewBox="0 0 999.593 999.593"><defs><style>.cls-1{fill:#f38c00;}</style></defs><title>icon_settings_help</title><path id="Icon_material-help" data-name="Icon material-help" class="cls-1" d="M500.09.407C224.06.407.293,224.173.293,500.2S224.06,1000,500.09,1000s499.8-223.767,499.8-499.8C999.792,224.212,776.081.5,500.09.407Zm49.979,849.654H450.11V750.1h99.959ZM653.513,462.733,608.5,508.428a170.161,170.161,0,0,0-58.491,141.429H450.053V624.9a201.169,201.169,0,0,1,58.605-141.2l61.974-62.832a97.733,97.733,0,0,0,29.417-70.6,99.96,99.96,0,0,0-199.919,0H300.171c0-110.412,89.507-199.918,199.919-199.918s199.918,89.506,199.918,199.918A159.021,159.021,0,0,1,653.513,462.733Z" transform="translate(-0.293 -0.407)"/></svg>