<?xml version="1.0" encoding="utf-8"?>
<!-- Generator: Adobe Illustrator 23.1.0, SVG Export Plug-In . SVG Version: 6.00 Build 0)  -->
<svg version="1.1" xmlns="http://www.w3.org/2000/svg" xmlns:xlink="http://www.w3.org/1999/xlink" x="0px" y="0px"
	 viewBox="0 0 1000 1000" style="enable-background:new 0 0 1000 1000;" xml:space="preserve">
<style type="text/css">
	.st0{display:none;}
	.st1{display:inline;fill:#BEC4CB;}
	.st2{fill:#BEC4CB;}
</style>
<g id="Layer_1" class="st0">
	<path id="Icon_material-people" class="st1" d="M500.27,428.93c118.27,0,214.15-95.88,214.15-214.15
		c0-118.27-95.88-214.15-214.15-214.15S286.12,96.5,286.12,214.78c0,0,0,0,0,0c-0.48,117.79,94.62,213.67,212.41,214.15
		C499.11,428.93,499.69,428.93,500.27,428.93z M500.27,571.72c-166.35,0-499.79,83.52-499.79,249.86v178.5H1000V821.64
		c0-166.35-333.38-249.86-499.73-249.86V571.72z"/>
</g>
<g id="Layer_2" class="st0">
	<path id="Icon_material-email" class="st1" d="M900.04,132.8H100.22c-55.04,0.19-99.54,44.92-99.44,99.96L0.25,832.43
		c0.16,55.14,44.82,99.8,99.96,99.96h799.82c55.14-0.16,99.8-44.82,99.96-99.96V232.76C999.84,177.62,955.18,132.96,900.04,132.8z
		 M900.04,332.67L500.24,582.29L100.45,332.67v-99.91l399.79,249.62l399.79-249.62V332.67z"/>
</g>
<g id="Layer_3" class="st0">
	<path id="Icon_material-local-phone" class="st1" d="M201.43,432.76c80.57,157.36,208.65,285.35,366.06,365.81L689.7,676.36
		c14.82-14.85,36.77-20.02,56.67-13.35c63.9,21.1,130.75,31.88,198.05,31.94c30.67,0.07,55.51,24.91,55.58,55.58v193.89
		c-0.07,30.67-24.91,55.51-55.58,55.58C422.92,999.89,0.24,577.07,0.32,55.58C0.39,24.91,25.23,0.07,55.9,0h194.4
		c30.67,0.07,55.51,24.91,55.58,55.58c0.02,67.3,10.8,134.16,31.94,198.05c6.41,19.99,1.06,41.89-13.86,56.67L201.43,432.76z"/>
</g>
<g id="Layer_4">
	<path id="Icon_awesome-key" class="st2" d="M1000,342.92c-0.13,189.92-154.19,343.78-344.11,343.65
		c-21.36-0.01-42.67-2.02-63.66-5.99l-46.86,52.77c-8.9,10.01-21.66,15.73-35.05,15.72h-72.65v78.12
		c0,25.88-20.98,46.86-46.86,46.86h-78.12v78.12c0,25.88-20.98,46.86-46.86,46.86H47.1c-25.88,0-46.86-20.98-46.86-46.86
		c0-0.02,0-0.04,0-0.06V799.73c0.01-12.43,4.95-24.34,13.74-33.13l315.66-315.98c-59.01-180.41,39.41-374.5,219.83-433.51
		s374.5,39.41,433.51,219.83C994.16,271.16,999.91,306.92,1000,342.92z M656.3,249.2c0,51.76,41.96,93.72,93.72,93.72
		c51.76,0,93.72-41.96,93.72-93.72s-41.96-93.72-93.72-93.72c-51.74,0.03-93.66,41.99-93.66,93.72L656.3,249.2z"/>
</g>
</svg>
