<svg id="Layer_1" data-name="Layer 1" xmlns="http://www.w3.org/2000/svg" viewBox="0 0 490.136 512"><defs><style>.cls-1{fill:#fff;}</style></defs><path class="cls-1" d="M494.766,317.522l-43.974-25.393a198.82,198.82,0,0,0,0-72.464l43.974-25.394a12.474,12.474,0,0,0,5.677-14.451,257.087,257.087,0,0,0-56.464-97.652A12.421,12.421,0,0,0,428.7,79.794l-43.974,25.394a194.805,194.805,0,0,0-62.761-36.232V18.272a12.368,12.368,0,0,0-9.7-12.078,259.522,259.522,0,0,0-112.723,0,12.368,12.368,0,0,0-9.7,12.078V69.059a200.958,200.958,0,0,0-62.761,36.232L83.206,79.9a12.264,12.264,0,0,0-15.277,2.375,255.533,255.533,0,0,0-56.464,97.651,12.346,12.346,0,0,0,5.677,14.451l43.974,25.394a198.82,198.82,0,0,0,0,72.464L17.142,317.626a12.474,12.474,0,0,0-5.677,14.451,257.083,257.083,0,0,0,56.464,97.651A12.42,12.42,0,0,0,83.206,432.1l43.974-25.394a194.805,194.805,0,0,0,62.761,36.232v50.787a12.368,12.368,0,0,0,9.7,12.078,259.517,259.517,0,0,0,112.722,0,12.368,12.368,0,0,0,9.7-12.078V442.941a200.958,200.958,0,0,0,62.761-36.232L428.805,432.1a12.264,12.264,0,0,0,15.277-2.375,255.535,255.535,0,0,0,56.465-97.651A12.749,12.749,0,0,0,494.766,317.522ZM255.9,338.477a82.581,82.581,0,1,1,82.58-82.58A82.69,82.69,0,0,1,255.9,338.477Z" transform="translate(-10.891)"/></svg>