<svg id="Layer_1" data-name="Layer 1" xmlns="http://www.w3.org/2000/svg" viewBox="0 0 1000 1000"><defs><style>.cls-1{fill:#93c01f;}.cls-2{fill:#f28c00;}</style></defs><path class="cls-1" d="M800.429,374.694c80.66-142.713,52.143-229.225,52.143-229.225l-.012-.006s-86.622-27.952-228.734,53.494C579.958,41.01,498.627,0,498.627,0H498.6S417.585,41.49,374.694,199.572c-142.713-80.67-229.222-52.159-229.222-52.159l-.012.025s-27.947,86.624,53.5,228.73C41.01,420.036,0,501.373,0,501.373v.025s41.5,81,199.571,123.908c-80.666,142.7-52.156,229.21-52.156,229.21l.026.025s86.621,27.946,228.733-53.51C420.042,958.99,501.373,1000,501.373,1000h.025s81.017-41.487,123.908-199.571c142.713,80.653,229.222,52.143,229.222,52.143l.012-.012s27.947-86.622-53.5-228.733C958.99,579.958,1000,498.628,1000,498.628V498.6S958.507,417.585,800.429,374.694ZM720.1,278.771v.012s9.353,28.447,4.852,80.165c-23.52-3.6-48.921-6.37-76.353-8.106-1.906-27.463-4.826-52.9-8.563-76.429C691.641,269.618,720.1,278.771,720.1,278.771Zm-32.936,221.06c-7.108,16.487-15.358,33.713-25.1,51.755l.037.025q17.208-17.311,32.472-34.058a492.86,492.86,0,0,1,22.743,71.952,492.4,492.4,0,0,1-66.925,35.249q.912-22.9.852-47.579l-.037.012c-5.817,19.909-12.13,38.151-18.744,55.04-16.674,6.632-34.691,12.975-54.337,18.843v.05q24.411-.075,47.053-1.128a493.109,493.109,0,0,1-34.8,66.963,494.045,494.045,0,0,1-72.253-22.392q16.841-15.554,34.252-33.049l-.038-.025c-18.191,9.967-35.555,18.4-52.168,25.676-16.48-7.108-33.713-15.358-51.754-25.1l-.038.037q17.32,17.208,34.065,32.472A492.623,492.623,0,0,1,410.5,717.318a493.127,493.127,0,0,1-35.249-66.925q22.905.9,47.579.852v-.037c-19.909-5.817-38.164-12.136-55.045-18.743-6.626-16.675-12.982-34.7-18.85-54.35h-.05q.075,24.42,1.128,47.065a493.356,493.356,0,0,1-66.962-34.8,492.84,492.84,0,0,1,22.391-72.241q15.553,16.833,33.037,34.253l.037-.038c-9.967-18.2-18.405-35.568-25.676-52.187,7.108-16.481,15.358-33.707,25.1-51.748l-.037-.025q-17.208,17.31-32.472,34.057a493.422,493.422,0,0,1-22.743-71.958,493.66,493.66,0,0,1,66.912-35.243q-.9,22.9-.852,47.58h.05c5.817-19.916,12.136-38.17,18.744-55.052,16.674-6.632,34.691-12.976,54.337-18.844v-.05q-24.411.075-47.053,1.116a492.972,492.972,0,0,1,34.8-66.95,493.244,493.244,0,0,1,72.248,22.392q-16.832,15.552-34.24,33.036l.025.037c18.192-9.973,35.563-18.411,52.175-25.676,16.48,7.108,33.706,15.358,51.748,25.1l.037-.038q-17.321-17.208-34.064-32.472A491.948,491.948,0,0,1,589.5,282.682,492.658,492.658,0,0,1,624.754,349.6q-22.9-.9-47.579-.853v.05c19.909,5.817,38.163,12.137,55.051,18.744,6.627,16.674,12.976,34.7,18.844,54.337h.05q-.075-24.409-1.122-47.053a492.332,492.332,0,0,1,66.957,34.8,492.569,492.569,0,0,1-22.392,72.241q-15.554-16.832-33.037-34.24l-.037.038C671.456,465.854,679.9,483.219,687.165,499.831ZM499.191,187.937h.013s26.729,13.5,60.117,53.258c-19.17,14.093-39.092,30.09-59.716,48.257-20.768-18.072-40.822-33.989-60.1-47.987C472.6,201.583,499.191,187.937,499.191,187.937ZM278.77,279.911l.013-.012s28.447-9.353,80.165-4.846c-3.593,23.514-6.363,48.915-8.106,76.34-27.463,1.906-52.9,4.834-76.422,8.57C269.618,308.365,278.77,279.911,278.77,279.911Zm-90.834,220.9v-.025s13.509-26.73,53.259-60.111c14.092,19.17,30.09,39.1,48.257,59.722-18.072,20.762-33.989,40.815-47.981,60.1C201.59,527.4,187.936,500.809,187.936,500.809ZM279.9,721.23v-.013s-9.353-28.447-4.846-80.177c23.514,3.6,48.915,6.369,76.347,8.112,1.906,27.47,4.826,52.895,8.569,76.428C308.365,730.382,279.9,721.23,279.9,721.23Zm220.91,90.834h-.025s-26.73-13.516-60.111-53.272c19.163-14.079,39.085-30.09,59.71-48.244,20.774,18.067,40.821,33.989,60.11,47.981C527.4,798.41,500.809,812.064,500.809,812.064ZM721.23,720.089l-.013.012s-28.447,9.353-80.165,4.84c3.586-23.508,6.357-48.909,8.1-76.341,27.47-1.9,52.9-4.826,76.428-8.562C730.382,691.629,721.23,720.089,721.23,720.089Zm90.834-220.872s-13.5,26.723-53.259,60.1c-14.092-19.17-30.09-39.092-48.257-59.716,18.079-20.762,33.989-40.822,47.987-60.1,39.875,33.092,53.529,59.69,53.529,59.69Z"/><path class="cls-2" d="M800.373,374.77c42.269-74.761,54.6-134.113,56.737-173.682-5.277,3.172-10.619,6.194-15.96,8.89C802.109,233.912,762,258.635,721.556,284.237c2.432,10.519,6.764,36.158,3.4,74.723-23.519-3.6-48.927-6.369-76.359-8.112-.438-6.306-.909-12.55-1.454-18.656q-11.622,7.654-23.244,15.422c.288.664.576,1.379.864,2.043-1.235-.05-2.394-.138-3.635-.175q-21.232-.771-43.944-.74v.05c10.619,3.109,20.749,6.357,30.491,9.7,8.525,2.934,16.656,5.968,24.536,9.052,6.639,16.662,13,34.679,18.868,54.325h.05q-.082-24.429-1.14-47.066a492.539,492.539,0,0,1,67,34.83,494.547,494.547,0,0,1-22.411,72.253q-15.561-16.851-33.055-34.265l-.025.038c9.98,18.2,18.424,35.593,25.689,52.218-7.1,16.462-15.389,33.688-25.112,51.705l.025.025c11.5-11.56,22.254-22.919,32.46-34.1a491.957,491.957,0,0,1,22.755,71.99,492.067,492.067,0,0,1-66.912,35.255q.9-22.9.852-47.579h-.05c-5.817,19.921-12.13,38.163-18.744,55.052-16.674,6.632-34.691,12.975-54.337,18.843v.05q24.411-.075,47.053-1.115a493.807,493.807,0,0,1-34.8,66.95,494.184,494.184,0,0,1-72.248-22.392q16.842-15.554,34.253-33.049l-.038-.025c-18.192,9.967-35.563,18.417-52.175,25.676-16.48-7.108-33.706-15.358-51.748-25.1l-.037.037q17.321,17.208,34.064,32.472A492.642,492.642,0,0,1,410.5,717.318a491.98,491.98,0,0,1-35.267-66.95c15.282.6,31.105.928,47.591.877v-.037c-19.922-5.817-38.176-12.136-55.045-18.743-6.626-16.675-12.982-34.7-18.85-54.35h-.05q.075,24.409,1.128,47.028a516.093,516.093,0,0,1-48.018-23.558c-8.651,8.5-17.1,17.138-25.464,25.814a.281.281,0,0,1,.013-.075c-1.455,1.5-2.846,3.034-4.288,4.552-2.42,2.519-4.878,5.027-7.259,7.572a.236.236,0,0,0,.094.012c-46.157,49.16-87.53,100.99-121.971,155.917-2.583,38.226,4.313,59.139,4.313,59.139l.013.012s86.621,27.959,228.733-53.485C420.042,958.99,501.373,1000,501.373,1000h.025s81.017-41.487,123.914-199.571C768.026,881.1,854.54,852.585,854.54,852.585v-.025s27.947-86.622-53.5-228.733C958.99,579.958,1000,498.628,1000,498.628V498.6S958.388,417.673,800.373,374.77ZM279.911,721.23l-.012-.013s-9.3-28.5-4.8-80.2c23.508,3.6,48.9,6.369,76.3,8.112,1.906,27.47,4.826,52.92,8.569,76.466C308.371,730.382,279.911,721.23,279.911,721.23Zm220.9,90.834h-.025s-26.73-13.5-60.111-53.259c19.169-14.092,39.1-30.09,59.722-48.257,20.768,18.067,40.822,33.989,60.1,47.981C527.4,798.41,500.809,812.064,500.809,812.064Zm220.433-91.975-.012.012s-28.454,9.353-80.178,4.853c3.6-23.521,6.37-48.922,8.112-76.354,27.464-1.9,52.9-4.826,76.429-8.562C730.4,691.629,721.242,720.089,721.242,720.089Zm90.822-220.872s-13.5,26.729-53.259,60.1c-14.092-19.17-30.1-39.092-48.269-59.729q27.081-31.123,48-60.066c39.888,33.086,53.541,59.665,53.541,59.665Z"/></svg>