<svg id="Layer_1" data-name="Layer 1" xmlns="http://www.w3.org/2000/svg" viewBox="0 0 512 512"><defs><style>.cls-1{fill:#4299e1;}</style></defs><path class="cls-1" d="M512,256c0,141.416-114.625,256-256,256S0,397.416,0,256C0,114.666,114.625,0,256,0S512,114.666,512,256ZM256,307.613A47.484,47.484,0,1,0,303.484,355.1,47.484,47.484,0,0,0,256,307.613Zm-45.082-170.68,7.657,140.387a12.387,12.387,0,0,0,12.369,11.712h50.112a12.385,12.385,0,0,0,12.368-11.712l7.658-140.387a12.388,12.388,0,0,0-12.369-13.062H223.286a12.387,12.387,0,0,0-12.368,13.062Z"/></svg>