<svg id="Layer_1" data-name="Layer 1" xmlns="http://www.w3.org/2000/svg" viewBox="0 0 512.037 512.037"><defs><style>.cls-1{fill:#f56565;}</style></defs><path class="cls-1" d="M437.019,74.981c-100-100-262.04-100-362.038,0s-100,262.04,0,362.038,262.04,100,362.038,0S537.018,174.979,437.019,74.981ZM340.67,381.546a12.424,12.424,0,0,1-17.518,0L256,314.393l-67.152,67.153a12.424,12.424,0,0,1-17.518,0L130.454,340.67a12.424,12.424,0,0,1,0-17.518L197.607,256l-67.153-67.152a12.424,12.424,0,0,1,0-17.518l40.876-40.876a12.424,12.424,0,0,1,17.518,0L256,197.607l67.152-67.153a12.424,12.424,0,0,1,17.518,0l40.876,40.876a12.424,12.424,0,0,1,0,17.518L314.393,256l67.153,67.152a12.424,12.424,0,0,1,0,17.518Z" transform="translate(0.018 0.018)"/></svg>