<svg id="Layer_1" data-name="Layer 1" xmlns="http://www.w3.org/2000/svg" viewBox="0 0 512 512"><defs><style>.cls-1{fill:#fa0;}</style></defs><path class="cls-1" d="M512,256c0,141.416-114.625,256-256,256S0,397.416,0,256C0,114.666,114.625,0,256,0S512,114.666,512,256ZM262.87,84.645c-56.255,0-92.135,23.7-120.309,65.815a12.4,12.4,0,0,0,2.8,16.782L181.182,194.4a12.384,12.384,0,0,0,17.2-2.19c18.44-23.389,31.084-36.952,59.151-36.952,21.088,0,47.172,13.572,47.172,34.021,0,15.459-12.762,23.4-33.583,35.072-24.283,13.612-56.415,30.555-56.415,72.938v4.129A12.387,12.387,0,0,0,227.1,313.806H284.9a12.387,12.387,0,0,0,12.387-12.387v-1.376c0-29.38,85.87-30.6,85.87-110.108C383.16,130.062,321.054,84.645,262.87,84.645Zm-6.87,256a47.484,47.484,0,1,0,47.484,47.484A47.537,47.537,0,0,0,256,340.645Z"/></svg>